<?xml version="1.0" encoding="utf-8"?>
<!-- Generator: Adobe Illustrator 19.1.0, SVG Export Plug-In . SVG Version: 6.00 Build 0)  -->
<!DOCTYPE svg PUBLIC "-//W3C//DTD SVG 1.1//EN" "http://www.w3.org/Graphics/SVG/1.1/DTD/svg11.dtd">
<svg version="1.1" id="Layer_1" xmlns="http://www.w3.org/2000/svg" xmlns:xlink="http://www.w3.org/1999/xlink" x="0px" y="0px"
	 viewBox="0 0 24 24" enable-background="new 0 0 24 24" xml:space="preserve">
<g>
	<path fill="#CCCCCC" d="M15.4,17.1c0,0.3-0.5,0.4-0.5,0.4c-0.6,0.2-1.2,0.4-1.5,0.5c-0.4,0.1-0.8,0.2-1.3,0.2
		c-0.8,0-1.4-0.2-1.8-0.5c-0.4-0.3-0.6-0.7-0.6-1.2c0-0.2,0-0.4,0-0.6c0-0.2,0.1-0.4,0.2-0.7l0.8-2.4c0.1-0.2,0.1-0.4,0.2-0.6
		c0-0.2,0.1-0.4,0.1-0.6c0-0.3-0.1-0.5-0.2-0.6c-0.1-0.1-0.4-0.2-0.9-0.2c-0.2,0-0.4,0-0.6,0.1c0,0-0.3,0.1-0.5-0.2
		c0,0-0.1-0.3,0.2-0.4c0.5-0.2,1-0.3,1.5-0.5c0.5-0.1,0.9-0.2,1.4-0.2c0.8,0,1.4,0.2,1.8,0.5c0.4,0.3,0.6,0.7,0.6,1.2
		c0,0.1,0,0.3,0,0.5c0,0.3-0.1,0.5-0.2,0.7L13,15c-0.1,0.2-0.1,0.4-0.2,0.7c-0.1,0.2-0.1,0.4-0.1,0.6c0,0.3,0.1,0.5,0.3,0.6
		c0.2,0.1,0.5,0.2,0.9,0.2c0.2,0,0.4,0,0.7-0.1c0.2-0.1,0.4-0.1,0.5-0.2C15.4,16.8,15.4,17.1,15.4,17.1z M14.8,6.9
		c0.1,0.4,0,0.8-0.3,1.2c-0.3,0.4-0.7,0.6-1.2,0.7c-0.5,0.1-1,0.1-1.4-0.1c-0.4-0.2-0.7-0.5-0.8-0.9c-0.1-0.4,0-0.8,0.3-1.2
		c0.3-0.4,0.7-0.6,1.2-0.7c0.5-0.1,1-0.1,1.4,0.1C14.5,6.2,14.7,6.5,14.8,6.9z"/>
</g>
</svg>
